<svg xmlns="http://www.w3.org/2000/svg" width="237" height="131.005" viewBox="0 0 237 131.005">
  <g id="그룹_21" data-name="그룹 21" transform="translate(-259.272 -58.783)">
    <path id="패스_70" data-name="패스 70" d="M295.585,70.809v61.53H280.039V70.809Z" transform="translate(46.323 26.826)" fill="#fff"/>
    <path id="패스_71" data-name="패스 71" d="M328.025,132.339l-12.661-19.1-11.22,19.1h-16.66l20.107-30.878-20.33-30.652h17.552L317.367,89.8l11.327-18.993H345.35L325.14,101.461l20.434,30.878Z" transform="translate(62.432 26.826)" fill="#fff"/>
    <path id="패스_72" data-name="패스 72" d="M366.7,106.924H321.718q.553,6.673,4.665,10.445a14.376,14.376,0,0,0,10.105,3.777q8.664,0,12.328-7.44h16.77a28.022,28.022,0,0,1-10.222,14.606q-7.545,5.723-18.547,5.718a32.089,32.089,0,0,1-15.937-3.941,27.724,27.724,0,0,1-10.99-11.165,34.133,34.133,0,0,1-3.948-16.66,34.853,34.853,0,0,1,3.886-16.77,27.137,27.137,0,0,1,10.887-11.107,34.959,34.959,0,0,1,31.818-.113,26.6,26.6,0,0,1,10.774,10.719,32.44,32.44,0,0,1,3.831,15.94A36.845,36.845,0,0,1,366.7,106.924ZM351.039,96.489a12.326,12.326,0,0,0-4.332-9.6,15.339,15.339,0,0,0-10.328-3.615,14.121,14.121,0,0,0-9.721,3.5,15.381,15.381,0,0,0-4.83,9.721Z" transform="translate(104.104 26.135)" fill="#fff"/>
    <path id="패스_73" data-name="패스 73" d="M343.367,63.6v84.836H327.821V63.6Z" transform="translate(152.905 10.735)" fill="#fff"/>
    <rect id="사각형_14" data-name="사각형 14" width="15.546" height="15.546" transform="translate(326.361 74.329)" fill="#fff"/>
    <rect id="사각형_15" data-name="사각형 15" width="15.546" height="15.546" transform="translate(310.815 58.783)" fill="#fff"/>
    <g id="그룹_21-2" data-name="그룹 21" transform="translate(259.272 97.635)">
      <path id="패스_74" data-name="패스 74" d="M259.272,162.962h15.546V132.339h14.521a26.332,26.332,0,0,0,14.276-4,27.993,27.993,0,0,0,10.105-11.275,32.085,32.085,0,0,0,3.725-15.714,31.46,31.46,0,0,0-3.725-15.6A27.377,27.377,0,0,0,303.615,74.7a26.922,26.922,0,0,0-14.276-3.886H259.272Zm15.546-78.494H285.23a16.065,16.065,0,0,1,8.057,2.11,15.848,15.848,0,0,1,6,6.164,15.627,15.627,0,0,1,2.278,8.606,16.089,16.089,0,0,1-2.278,8.771,16.513,16.513,0,0,1-6,6.335,15.415,15.415,0,0,1-8.057,2.223H274.818Z" transform="translate(-259.272 -70.809)" fill="#fff"/>
    </g>
  </g>
</svg>
